<svg xmlns="http://www.w3.org/2000/svg" xmlns:xlink="http://www.w3.org/1999/xlink" width="500" zoomAndPan="magnify" viewBox="0 0 375 374.999991" height="500" preserveAspectRatio="xMidYMid meet" version="1.0"><defs><g/><clipPath id="5f86fd854a"><path d="M 146.023438 110 L 229.273438 110 L 229.273438 187 L 146.023438 187 Z M 146.023438 110 " clip-rule="nonzero"/></clipPath></defs><g clip-path="url(#5f86fd854a)"><path fill="#000000" d="M 200.65625 186.769531 C 193.960938 185.964844 188.378906 181.550781 183.605469 177.109375 C 181.652344 175.011719 179.617188 172.71875 178.71875 169.960938 C 178.257812 167.527344 177.84375 162.585938 181.375 162.503906 C 183.902344 162.75 185.46875 165.285156 186.292969 167.441406 C 187.597656 165.113281 189.738281 161.847656 192.84375 162.5 C 196.464844 163.789062 195.5625 168.582031 193.738281 171.046875 C 192.625 172.703125 191.242188 174.160156 189.90625 175.636719 C 189.441406 176.136719 188.523438 175.757812 188.546875 175.078125 C 188.628906 174.339844 190.171875 173.15625 190.667969 172.441406 C 191.953125 170.996094 193.21875 169.410156 193.691406 167.5 C 194.054688 166.09375 193.601562 163.695312 191.703125 163.964844 C 189.71875 164.601562 188.472656 166.621094 187.554688 168.367188 C 187.324219 168.972656 187.40625 169.722656 186.964844 170.234375 C 186.585938 170.636719 185.875 170.503906 185.636719 170.011719 C 185.015625 168.644531 184.742188 167.109375 183.832031 165.871094 C 182.414062 163.828125 180.253906 162.832031 179.980469 166.195312 C 179.929688 167.679688 179.976562 169.269531 180.648438 170.625 C 182.042969 173.105469 183.882812 175.339844 186.027344 177.214844 C 189.441406 180.144531 193.0625 182.996094 197.40625 184.410156 C 199.25 185.089844 201.257812 185.472656 203.21875 185.125 C 206.890625 184.277344 210.175781 181.695312 211.359375 178.078125 C 213.546875 171.921875 211.390625 165.421875 209.414062 159.503906 C 202.101562 158.3125 197.546875 151.601562 194.773438 145.316406 C 189.570312 147.628906 183.464844 147.886719 178.117188 145.890625 C 175.464844 151.578125 171.953125 157.464844 166.035156 160.246094 C 164.652344 166.609375 160.515625 175.039062 163.878906 181.222656 C 165.996094 184.726562 171.601562 185.207031 175.148438 183.839844 C 176.949219 183.210938 178.613281 182.234375 180.042969 180.976562 C 180.671875 180.632812 181.796875 178.476562 182.460938 179.1875 C 182.589844 179.351562 182.613281 179.925781 182.359375 179.96875 C 180.664062 183.1875 177.046875 184.996094 173.609375 185.820312 C 170.058594 186.546875 165.75 185.773438 163.246094 183.019531 C 158.453125 176.691406 162.589844 167.769531 164.226562 160.945312 C 157.503906 163.167969 149.769531 159.683594 147.476562 152.941406 C 146.027344 149.476562 146.167969 145.46875 147.953125 142.148438 C 149.914062 138.019531 155.167969 135.183594 159.507812 137.503906 C 166.773438 141.59375 168.089844 150.851562 166.464844 158.328125 C 171.40625 155.457031 174.347656 150.3125 176.683594 145.296875 C 172.261719 143.292969 168.703125 139.773438 166.324219 135.601562 C 162.859375 130.007812 160.195312 122.734375 163.460938 116.472656 C 164.707031 114.300781 166.296875 112.15625 168.625 111.050781 C 170.957031 109.980469 173.664062 109.9375 176.117188 110.617188 C 178.695312 111.671875 180.628906 113.832031 181.636719 116.386719 C 185.171875 125.5625 182.660156 135.847656 178.75 144.507812 C 183.707031 146.304688 189.328125 146.042969 194.128906 143.898438 C 191.019531 136.726562 188.277344 128.664062 190.4375 120.855469 C 191.277344 117.984375 193.035156 115.273438 195.5625 113.601562 C 199.835938 111.238281 205.015625 112.542969 207.34375 116.890625 C 209.820312 121.710938 209.191406 127.507812 207.410156 132.457031 C 205.285156 137.664062 201.085938 141.957031 196.152344 144.640625 C 198.667969 150.25 202.523438 156.300781 208.925781 157.824219 C 207.390625 152.164062 206.800781 145.675781 210.089844 140.5 C 213.027344 135.265625 220.875 132.550781 225.851562 136.554688 C 228.222656 138.410156 229.269531 141.542969 229.128906 144.46875 C 228.855469 147.957031 226.894531 150.976562 224.601562 153.527344 C 221.210938 157.335938 216.285156 160.054688 211.054688 159.6875 C 213.1875 166.015625 215.164062 173.152344 212.316406 179.574219 C 210.402344 183.957031 205.523438 187.1875 200.660156 186.765625 Z M 160.070312 160.09375 C 161.636719 160.054688 163.199219 159.757812 164.660156 159.199219 C 165.632812 154.964844 165.933594 150.421875 164.570312 146.238281 C 162.710938 140.6875 157.019531 135.285156 151.421875 140.0625 C 147.058594 144.167969 147.085938 150.273438 150.234375 155.097656 C 152.40625 158.257812 156.242188 160.109375 160.070312 160.097656 Z M 211.511719 158.179688 C 216.761719 158.460938 221.488281 155.25 224.5625 151.242188 C 227.195312 148.058594 228.621094 143.847656 226.660156 139.960938 C 223.59375 134.117188 214.914062 135.761719 211.816406 140.746094 C 208.214844 145.820312 208.984375 152.453125 210.582031 158.113281 C 210.890625 158.148438 211.199219 158.167969 211.511719 158.179688 Z M 177.3125 143.921875 C 180.179688 137.644531 182.160156 130.773438 181.691406 123.824219 C 181.3125 119.824219 180.472656 115.132812 176.824219 112.789062 C 174.863281 111.445312 172.175781 111.523438 169.976562 112.210938 C 165.929688 113.746094 163.449219 118.730469 163.550781 122.882812 C 163.578125 127.011719 165.355469 130.875 167.398438 134.390625 C 169.65625 138.464844 172.992188 142 177.3125 143.921875 Z M 194.339844 140.4375 C 194.617188 141.167969 194.921875 141.886719 195.234375 142.597656 C 195.324219 142.804688 195.414062 143.011719 195.507812 143.214844 C 201.535156 139.925781 206.371094 134.039062 207.179688 127.128906 C 207.777344 123.21875 207.429688 118.671875 204.488281 115.742188 C 202.617188 113.917969 199.757812 113.539062 197.359375 114.488281 C 194.074219 115.808594 192.238281 119.421875 191.59375 122.714844 C 190.402344 128.75 192.191406 134.824219 194.339844 140.4375 Z M 194.339844 140.4375 " fill-opacity="1" fill-rule="nonzero"/></g><g fill="#000000" fill-opacity="1"><g transform="translate(72.918735, 217.082945)"><g><path d="M 10.390625 0 L 10.328125 -0.96875 L 11.890625 -1.328125 C 11.921875 -1.390625 11.945312 -1.5625 11.96875 -1.84375 C 12 -2.125 12.015625 -2.523438 12.015625 -3.046875 C 12.023438 -3.566406 12.03125 -4.234375 12.03125 -5.046875 L 12.03125 -9.828125 C 12.03125 -10.671875 12.023438 -11.351562 12.015625 -11.875 C 12.015625 -12.40625 12 -12.8125 11.96875 -13.09375 C 11.945312 -13.375 11.921875 -13.535156 11.890625 -13.578125 L 10.328125 -13.9375 L 10.390625 -14.90625 L 15.84375 -14.90625 L 15.921875 -13.9375 L 14.34375 -13.578125 C 14.3125 -13.535156 14.285156 -13.375 14.265625 -13.09375 C 14.253906 -12.8125 14.238281 -12.40625 14.21875 -11.875 C 14.195312 -11.351562 14.1875 -10.671875 14.1875 -9.828125 L 14.1875 -5.046875 C 14.1875 -4.234375 14.195312 -3.566406 14.21875 -3.046875 C 14.238281 -2.523438 14.253906 -2.125 14.265625 -1.84375 C 14.285156 -1.5625 14.3125 -1.390625 14.34375 -1.328125 L 15.921875 -0.96875 L 15.84375 0 Z M 1.25 0 L 1.171875 -0.96875 L 2.75 -1.328125 C 2.78125 -1.410156 2.796875 -1.601562 2.796875 -1.90625 C 2.804688 -2.207031 2.816406 -2.617188 2.828125 -3.140625 C 2.835938 -3.671875 2.84375 -4.304688 2.84375 -5.046875 L 2.84375 -9.828125 C 2.84375 -10.585938 2.835938 -11.234375 2.828125 -11.765625 C 2.816406 -12.296875 2.804688 -12.71875 2.796875 -13.03125 C 2.796875 -13.351562 2.78125 -13.535156 2.75 -13.578125 L 1.171875 -13.9375 L 1.25 -14.90625 L 6.65625 -14.90625 L 6.703125 -13.9375 L 5.15625 -13.578125 C 5.125 -13.535156 5.09375 -13.375 5.0625 -13.09375 C 5.039062 -12.8125 5.023438 -12.40625 5.015625 -11.875 C 5.003906 -11.351562 5 -10.671875 5 -9.828125 L 5 -5.046875 C 5 -4.234375 5.003906 -3.566406 5.015625 -3.046875 C 5.023438 -2.523438 5.039062 -2.125 5.0625 -1.84375 C 5.09375 -1.5625 5.125 -1.390625 5.15625 -1.328125 L 6.703125 -0.96875 L 6.65625 0 Z M 4.703125 -6.90625 L 4.703125 -8.40625 C 5.023438 -8.382812 5.515625 -8.363281 6.171875 -8.34375 C 6.828125 -8.332031 7.625 -8.328125 8.5625 -8.328125 C 9.488281 -8.328125 10.269531 -8.332031 10.90625 -8.34375 C 11.539062 -8.363281 12.007812 -8.382812 12.3125 -8.40625 L 12.3125 -6.90625 C 11.9375 -6.957031 11.453125 -6.988281 10.859375 -7 C 10.273438 -7.007812 9.507812 -7.015625 8.5625 -7.015625 C 7.570312 -7.015625 6.769531 -7.007812 6.15625 -7 C 5.550781 -6.988281 5.066406 -6.957031 4.703125 -6.90625 Z M 4.703125 -6.90625 "/></g></g></g><g fill="#000000" fill-opacity="1"><g transform="translate(93.876077, 217.082945)"><g><path d="M 1.171875 -14.90625 L 6.546875 -14.90625 L 6.625 -13.9375 L 5.046875 -13.5625 C 5.046875 -13.488281 5.035156 -13.332031 5.015625 -13.09375 C 5.003906 -12.863281 4.992188 -12.492188 4.984375 -11.984375 C 4.984375 -11.472656 4.984375 -10.753906 4.984375 -9.828125 L 4.984375 -5.921875 C 4.992188 -4.847656 5.164062 -3.984375 5.5 -3.328125 C 5.832031 -2.679688 6.289062 -2.207031 6.875 -1.90625 C 7.46875 -1.601562 8.144531 -1.453125 8.90625 -1.453125 C 9.65625 -1.453125 10.304688 -1.601562 10.859375 -1.90625 C 11.410156 -2.207031 11.835938 -2.703125 12.140625 -3.390625 C 12.441406 -4.078125 12.59375 -4.976562 12.59375 -6.09375 L 12.59375 -9.375 C 12.59375 -10.132812 12.582031 -10.804688 12.5625 -11.390625 C 12.550781 -11.972656 12.535156 -12.453125 12.515625 -12.828125 C 12.503906 -13.210938 12.476562 -13.457031 12.4375 -13.5625 L 10.671875 -13.9375 L 10.734375 -14.90625 L 15.671875 -14.90625 L 15.75 -13.9375 L 14.1875 -13.5625 C 14.1875 -13.507812 14.175781 -13.351562 14.15625 -13.09375 C 14.144531 -12.832031 14.132812 -12.40625 14.125 -11.8125 C 14.125 -11.21875 14.125 -10.40625 14.125 -9.375 L 14.125 -5.96875 C 14.125 -4.539062 13.882812 -3.367188 13.40625 -2.453125 C 12.9375 -1.546875 12.285156 -0.867188 11.453125 -0.421875 C 10.617188 0.015625 9.6875 0.234375 8.65625 0.234375 C 6.8125 0.234375 5.367188 -0.269531 4.328125 -1.28125 C 3.285156 -2.300781 2.765625 -3.742188 2.765625 -5.609375 L 2.765625 -9.828125 C 2.765625 -10.753906 2.753906 -11.472656 2.734375 -11.984375 C 2.722656 -12.503906 2.710938 -12.882812 2.703125 -13.125 C 2.691406 -13.363281 2.679688 -13.507812 2.671875 -13.5625 L 1.125 -13.9375 Z M 1.171875 -14.90625 "/></g></g></g><g fill="#000000" fill-opacity="1"><g transform="translate(114.630356, 217.082945)"><g><path d="M 12.34375 0.125 C 11.851562 0.0703125 11.414062 0.0351562 11.03125 0.015625 C 10.65625 0.00390625 10.296875 0 9.953125 0 L 1.25 0 L 1.171875 -0.96875 L 2.75 -1.328125 C 2.757812 -1.410156 2.769531 -1.601562 2.78125 -1.90625 C 2.800781 -2.207031 2.816406 -2.617188 2.828125 -3.140625 C 2.835938 -3.671875 2.84375 -4.304688 2.84375 -5.046875 L 2.84375 -9.828125 C 2.84375 -10.585938 2.835938 -11.234375 2.828125 -11.765625 C 2.816406 -12.296875 2.800781 -12.710938 2.78125 -13.015625 C 2.769531 -13.328125 2.757812 -13.515625 2.75 -13.578125 L 1.171875 -13.9375 L 1.25 -14.90625 L 9.390625 -14.90625 C 9.628906 -14.90625 9.882812 -14.90625 10.15625 -14.90625 C 10.425781 -14.90625 10.707031 -14.914062 11 -14.9375 C 11.300781 -14.96875 11.613281 -14.988281 11.9375 -15 L 12.4375 -11.65625 L 11.296875 -11.484375 L 10.46875 -13.609375 C 10.332031 -13.640625 10.175781 -13.660156 10 -13.671875 C 9.832031 -13.679688 9.65625 -13.6875 9.46875 -13.6875 L 6.609375 -13.6875 C 6.285156 -13.6875 6 -13.679688 5.75 -13.671875 C 5.507812 -13.660156 5.269531 -13.640625 5.03125 -13.609375 C 5.03125 -13.546875 5.023438 -13.351562 5.015625 -13.03125 C 5.003906 -12.71875 4.992188 -12.359375 4.984375 -11.953125 C 4.984375 -11.546875 4.984375 -11.140625 4.984375 -10.734375 L 4.984375 -3.890625 C 4.984375 -3.546875 4.984375 -3.203125 4.984375 -2.859375 C 4.992188 -2.515625 5.003906 -2.207031 5.015625 -1.9375 C 5.023438 -1.675781 5.03125 -1.488281 5.03125 -1.375 C 5.28125 -1.351562 5.53125 -1.332031 5.78125 -1.3125 C 6.039062 -1.300781 6.332031 -1.296875 6.65625 -1.296875 L 9.109375 -1.296875 C 9.484375 -1.296875 9.789062 -1.300781 10.03125 -1.3125 C 10.269531 -1.320312 10.457031 -1.332031 10.59375 -1.34375 C 10.726562 -1.363281 10.835938 -1.378906 10.921875 -1.390625 L 12.234375 -3.8125 L 13.375 -3.578125 Z M 9.515625 -5.203125 L 9.21875 -6.9375 C 9.132812 -6.96875 8.988281 -6.988281 8.78125 -7 C 8.582031 -7.019531 8.335938 -7.03125 8.046875 -7.03125 L 6.125 -7.03125 C 5.90625 -7.03125 5.660156 -7.019531 5.390625 -7 C 5.128906 -6.988281 4.863281 -6.972656 4.59375 -6.953125 L 4.59375 -8.359375 C 4.863281 -8.335938 5.128906 -8.320312 5.390625 -8.3125 C 5.660156 -8.300781 5.90625 -8.296875 6.125 -8.296875 L 8.046875 -8.296875 C 8.335938 -8.296875 8.582031 -8.300781 8.78125 -8.3125 C 8.988281 -8.320312 9.132812 -8.34375 9.21875 -8.375 L 9.515625 -10.125 L 10.609375 -10.125 L 10.609375 -5.203125 Z M 9.515625 -5.203125 "/></g></g></g><g fill="#000000" fill-opacity="1"><g transform="translate(132.643272, 217.082945)"><g><path d="M 11.859375 0.125 C 11.617188 0.09375 11.347656 0.0664062 11.046875 0.046875 C 10.753906 0.0351562 10.460938 0.0234375 10.171875 0.015625 C 9.890625 0.00390625 9.628906 0 9.390625 0 L 1.265625 0 L 1.21875 -0.96875 L 2.765625 -1.328125 C 2.785156 -1.410156 2.800781 -1.597656 2.8125 -1.890625 C 2.832031 -2.191406 2.847656 -2.613281 2.859375 -3.15625 C 2.867188 -3.695312 2.875 -4.328125 2.875 -5.046875 L 2.875 -9.828125 C 2.875 -10.585938 2.875 -11.226562 2.875 -11.75 C 2.875 -12.28125 2.863281 -12.695312 2.84375 -13 C 2.820312 -13.300781 2.796875 -13.488281 2.765625 -13.5625 L 1.21875 -13.9375 L 1.265625 -14.90625 L 7.234375 -14.90625 L 7.3125 -13.890625 L 5.203125 -13.5625 C 5.171875 -13.507812 5.144531 -13.34375 5.125 -13.0625 C 5.113281 -12.78125 5.097656 -12.375 5.078125 -11.84375 C 5.054688 -11.3125 5.046875 -10.640625 5.046875 -9.828125 L 5.046875 -5.046875 C 5.046875 -4.171875 5.054688 -3.40625 5.078125 -2.75 C 5.097656 -2.101562 5.113281 -1.6875 5.125 -1.5 C 5.363281 -1.46875 5.601562 -1.445312 5.84375 -1.4375 C 6.09375 -1.425781 6.390625 -1.421875 6.734375 -1.421875 L 8.640625 -1.421875 C 9.023438 -1.421875 9.351562 -1.425781 9.625 -1.4375 C 9.894531 -1.457031 10.164062 -1.488281 10.4375 -1.53125 L 11.75 -4.015625 L 12.90625 -3.765625 Z M 11.859375 0.125 "/></g></g></g><g fill="#000000" fill-opacity="1"><g transform="translate(149.513951, 217.082945)"><g><path d="M 11.859375 0.125 C 11.617188 0.09375 11.347656 0.0664062 11.046875 0.046875 C 10.753906 0.0351562 10.460938 0.0234375 10.171875 0.015625 C 9.890625 0.00390625 9.628906 0 9.390625 0 L 1.265625 0 L 1.21875 -0.96875 L 2.765625 -1.328125 C 2.785156 -1.410156 2.800781 -1.597656 2.8125 -1.890625 C 2.832031 -2.191406 2.847656 -2.613281 2.859375 -3.15625 C 2.867188 -3.695312 2.875 -4.328125 2.875 -5.046875 L 2.875 -9.828125 C 2.875 -10.585938 2.875 -11.226562 2.875 -11.75 C 2.875 -12.28125 2.863281 -12.695312 2.84375 -13 C 2.820312 -13.300781 2.796875 -13.488281 2.765625 -13.5625 L 1.21875 -13.9375 L 1.265625 -14.90625 L 7.234375 -14.90625 L 7.3125 -13.890625 L 5.203125 -13.5625 C 5.171875 -13.507812 5.144531 -13.34375 5.125 -13.0625 C 5.113281 -12.78125 5.097656 -12.375 5.078125 -11.84375 C 5.054688 -11.3125 5.046875 -10.640625 5.046875 -9.828125 L 5.046875 -5.046875 C 5.046875 -4.171875 5.054688 -3.40625 5.078125 -2.75 C 5.097656 -2.101562 5.113281 -1.6875 5.125 -1.5 C 5.363281 -1.46875 5.601562 -1.445312 5.84375 -1.4375 C 6.09375 -1.425781 6.390625 -1.421875 6.734375 -1.421875 L 8.640625 -1.421875 C 9.023438 -1.421875 9.351562 -1.425781 9.625 -1.4375 C 9.894531 -1.457031 10.164062 -1.488281 10.4375 -1.53125 L 11.75 -4.015625 L 12.90625 -3.765625 Z M 11.859375 0.125 "/></g></g></g><g fill="#000000" fill-opacity="1"><g transform="translate(166.38463, 217.082945)"><g><path d="M 0.078125 0 L 0.03125 -0.96875 L 1.265625 -1.328125 L 6.5 -14.46875 L 7.96875 -15.359375 L 13.515625 -1.328125 L 14.78125 -0.96875 L 14.703125 0 L 9.578125 0 L 9.515625 -0.96875 L 11.078125 -1.328125 L 9.578125 -5.078125 L 9.296875 -5.859375 L 6.53125 -12.765625 L 7.109375 -13.109375 L 4.46875 -5.859375 L 4.1875 -5.109375 L 2.84375 -1.328125 L 4.390625 -0.96875 L 4.34375 0 Z M 3.625 -4.703125 L 3.625 -6.046875 C 3.945312 -6.023438 4.390625 -6.003906 4.953125 -5.984375 C 5.515625 -5.972656 6.203125 -5.96875 7.015625 -5.96875 C 7.804688 -5.96875 8.484375 -5.972656 9.046875 -5.984375 C 9.617188 -6.003906 10.054688 -6.023438 10.359375 -6.046875 L 10.359375 -4.703125 C 9.785156 -4.710938 9.210938 -4.722656 8.640625 -4.734375 C 8.078125 -4.742188 7.535156 -4.75 7.015625 -4.75 C 6.503906 -4.75 5.972656 -4.742188 5.421875 -4.734375 C 4.867188 -4.722656 4.269531 -4.710938 3.625 -4.703125 Z M 3.625 -4.703125 "/></g></g></g><g fill="#000000" fill-opacity="1"><g transform="translate(185.057507, 217.082945)"><g/></g></g><g fill="#000000" fill-opacity="1"><g transform="translate(193.831016, 217.082945)"><g><path d="M 5.71875 0.234375 C 4.96875 0.234375 4.203125 0.140625 3.421875 -0.046875 C 2.648438 -0.234375 2.007812 -0.472656 1.5 -0.765625 L 1.375 -4.03125 L 2.46875 -4.140625 L 3.171875 -1.875 C 3.578125 -1.601562 4.03125 -1.394531 4.53125 -1.25 C 5.03125 -1.113281 5.550781 -1.046875 6.09375 -1.046875 C 6.925781 -1.046875 7.59375 -1.25 8.09375 -1.65625 C 8.601562 -2.0625 8.859375 -2.609375 8.859375 -3.296875 C 8.859375 -3.890625 8.679688 -4.382812 8.328125 -4.78125 C 7.972656 -5.1875 7.507812 -5.535156 6.9375 -5.828125 C 6.375 -6.117188 5.773438 -6.40625 5.140625 -6.6875 C 4.503906 -6.96875 3.90625 -7.289062 3.34375 -7.65625 C 2.789062 -8.019531 2.332031 -8.46875 1.96875 -9 C 1.601562 -9.53125 1.421875 -10.195312 1.421875 -11 C 1.421875 -11.8125 1.648438 -12.535156 2.109375 -13.171875 C 2.578125 -13.804688 3.21875 -14.296875 4.03125 -14.640625 C 4.84375 -14.984375 5.773438 -15.15625 6.828125 -15.15625 C 7.265625 -15.15625 7.691406 -15.132812 8.109375 -15.09375 C 8.523438 -15.050781 8.910156 -14.984375 9.265625 -14.890625 C 9.617188 -14.796875 9.941406 -14.691406 10.234375 -14.578125 L 10.4375 -11.40625 L 9.34375 -11.296875 L 8.640625 -13.4375 C 8.097656 -13.769531 7.398438 -13.9375 6.546875 -13.9375 C 5.679688 -13.9375 4.988281 -13.722656 4.46875 -13.296875 C 3.957031 -12.878906 3.703125 -12.332031 3.703125 -11.65625 C 3.703125 -11.039062 3.882812 -10.523438 4.25 -10.109375 C 4.613281 -9.703125 5.078125 -9.34375 5.640625 -9.03125 C 6.210938 -8.726562 6.816406 -8.4375 7.453125 -8.15625 C 8.085938 -7.882812 8.6875 -7.566406 9.25 -7.203125 C 9.820312 -6.847656 10.289062 -6.410156 10.65625 -5.890625 C 11.019531 -5.378906 11.203125 -4.742188 11.203125 -3.984375 C 11.203125 -3.171875 10.960938 -2.445312 10.484375 -1.8125 C 10.015625 -1.175781 9.367188 -0.675781 8.546875 -0.3125 C 7.722656 0.0507812 6.78125 0.234375 5.71875 0.234375 Z M 5.71875 0.234375 "/></g></g></g><g fill="#000000" fill-opacity="1"><g transform="translate(209.889445, 217.082945)"><g><path d="M 12.34375 0.125 C 11.851562 0.0703125 11.414062 0.0351562 11.03125 0.015625 C 10.65625 0.00390625 10.296875 0 9.953125 0 L 1.25 0 L 1.171875 -0.96875 L 2.75 -1.328125 C 2.757812 -1.410156 2.769531 -1.601562 2.78125 -1.90625 C 2.800781 -2.207031 2.816406 -2.617188 2.828125 -3.140625 C 2.835938 -3.671875 2.84375 -4.304688 2.84375 -5.046875 L 2.84375 -9.828125 C 2.84375 -10.585938 2.835938 -11.234375 2.828125 -11.765625 C 2.816406 -12.296875 2.800781 -12.710938 2.78125 -13.015625 C 2.769531 -13.328125 2.757812 -13.515625 2.75 -13.578125 L 1.171875 -13.9375 L 1.25 -14.90625 L 9.390625 -14.90625 C 9.628906 -14.90625 9.882812 -14.90625 10.15625 -14.90625 C 10.425781 -14.90625 10.707031 -14.914062 11 -14.9375 C 11.300781 -14.96875 11.613281 -14.988281 11.9375 -15 L 12.4375 -11.65625 L 11.296875 -11.484375 L 10.46875 -13.609375 C 10.332031 -13.640625 10.175781 -13.660156 10 -13.671875 C 9.832031 -13.679688 9.65625 -13.6875 9.46875 -13.6875 L 6.609375 -13.6875 C 6.285156 -13.6875 6 -13.679688 5.75 -13.671875 C 5.507812 -13.660156 5.269531 -13.640625 5.03125 -13.609375 C 5.03125 -13.546875 5.023438 -13.351562 5.015625 -13.03125 C 5.003906 -12.71875 4.992188 -12.359375 4.984375 -11.953125 C 4.984375 -11.546875 4.984375 -11.140625 4.984375 -10.734375 L 4.984375 -3.890625 C 4.984375 -3.546875 4.984375 -3.203125 4.984375 -2.859375 C 4.992188 -2.515625 5.003906 -2.207031 5.015625 -1.9375 C 5.023438 -1.675781 5.03125 -1.488281 5.03125 -1.375 C 5.28125 -1.351562 5.53125 -1.332031 5.78125 -1.3125 C 6.039062 -1.300781 6.332031 -1.296875 6.65625 -1.296875 L 9.109375 -1.296875 C 9.484375 -1.296875 9.789062 -1.300781 10.03125 -1.3125 C 10.269531 -1.320312 10.457031 -1.332031 10.59375 -1.34375 C 10.726562 -1.363281 10.835938 -1.378906 10.921875 -1.390625 L 12.234375 -3.8125 L 13.375 -3.578125 Z M 9.515625 -5.203125 L 9.21875 -6.9375 C 9.132812 -6.96875 8.988281 -6.988281 8.78125 -7 C 8.582031 -7.019531 8.335938 -7.03125 8.046875 -7.03125 L 6.125 -7.03125 C 5.90625 -7.03125 5.660156 -7.019531 5.390625 -7 C 5.128906 -6.988281 4.863281 -6.972656 4.59375 -6.953125 L 4.59375 -8.359375 C 4.863281 -8.335938 5.128906 -8.320312 5.390625 -8.3125 C 5.660156 -8.300781 5.90625 -8.296875 6.125 -8.296875 L 8.046875 -8.296875 C 8.335938 -8.296875 8.582031 -8.300781 8.78125 -8.3125 C 8.988281 -8.320312 9.132812 -8.34375 9.21875 -8.375 L 9.515625 -10.125 L 10.609375 -10.125 L 10.609375 -5.203125 Z M 9.515625 -5.203125 "/></g></g></g><g fill="#000000" fill-opacity="1"><g transform="translate(227.902364, 217.082945)"><g><path d="M 9.5 0.234375 C 7.976562 0.234375 6.59375 -0.046875 5.34375 -0.609375 C 4.101562 -1.179688 3.117188 -2.023438 2.390625 -3.140625 C 1.660156 -4.265625 1.296875 -5.65625 1.296875 -7.3125 C 1.296875 -8.375 1.484375 -9.375 1.859375 -10.3125 C 2.242188 -11.257812 2.796875 -12.097656 3.515625 -12.828125 C 4.234375 -13.554688 5.113281 -14.125 6.15625 -14.53125 C 7.195312 -14.9375 8.382812 -15.140625 9.71875 -15.140625 C 10.4375 -15.140625 11.1875 -15.070312 11.96875 -14.9375 C 12.757812 -14.800781 13.441406 -14.601562 14.015625 -14.34375 L 14.171875 -11.015625 L 13.046875 -10.921875 L 12.3125 -13.171875 C 11.988281 -13.410156 11.554688 -13.582031 11.015625 -13.6875 C 10.472656 -13.789062 9.972656 -13.84375 9.515625 -13.84375 C 8.210938 -13.84375 7.148438 -13.566406 6.328125 -13.015625 C 5.515625 -12.460938 4.910156 -11.726562 4.515625 -10.8125 C 4.128906 -9.90625 3.9375 -8.898438 3.9375 -7.796875 C 3.9375 -6.359375 4.191406 -5.132812 4.703125 -4.125 C 5.222656 -3.113281 5.921875 -2.351562 6.796875 -1.84375 C 7.679688 -1.34375 8.675781 -1.09375 9.78125 -1.09375 C 10.25 -1.09375 10.773438 -1.160156 11.359375 -1.296875 C 11.941406 -1.429688 12.460938 -1.664062 12.921875 -2 L 12.3125 -0.578125 L 12.3125 -3.25 C 12.3125 -3.8125 12.300781 -4.300781 12.28125 -4.71875 C 12.269531 -5.144531 12.25 -5.46875 12.21875 -5.6875 L 10.484375 -5.96875 L 10.53125 -6.984375 L 15.484375 -6.984375 L 15.546875 -6.015625 L 14.421875 -5.71875 C 14.421875 -5.632812 14.421875 -5.429688 14.421875 -5.109375 C 14.421875 -4.785156 14.421875 -4.394531 14.421875 -3.9375 C 14.421875 -3.34375 14.425781 -2.84375 14.4375 -2.4375 C 14.457031 -2.03125 14.476562 -1.609375 14.5 -1.171875 C 13.84375 -0.734375 13.050781 -0.390625 12.125 -0.140625 C 11.195312 0.109375 10.320312 0.234375 9.5 0.234375 Z M 9.5 0.234375 "/></g></g></g><g fill="#000000" fill-opacity="1"><g transform="translate(248.250519, 217.082945)"><g><path d="M 1.171875 -14.90625 L 6.546875 -14.90625 L 6.625 -13.9375 L 5.046875 -13.5625 C 5.046875 -13.488281 5.035156 -13.332031 5.015625 -13.09375 C 5.003906 -12.863281 4.992188 -12.492188 4.984375 -11.984375 C 4.984375 -11.472656 4.984375 -10.753906 4.984375 -9.828125 L 4.984375 -5.921875 C 4.992188 -4.847656 5.164062 -3.984375 5.5 -3.328125 C 5.832031 -2.679688 6.289062 -2.207031 6.875 -1.90625 C 7.46875 -1.601562 8.144531 -1.453125 8.90625 -1.453125 C 9.65625 -1.453125 10.304688 -1.601562 10.859375 -1.90625 C 11.410156 -2.207031 11.835938 -2.703125 12.140625 -3.390625 C 12.441406 -4.078125 12.59375 -4.976562 12.59375 -6.09375 L 12.59375 -9.375 C 12.59375 -10.132812 12.582031 -10.804688 12.5625 -11.390625 C 12.550781 -11.972656 12.535156 -12.453125 12.515625 -12.828125 C 12.503906 -13.210938 12.476562 -13.457031 12.4375 -13.5625 L 10.671875 -13.9375 L 10.734375 -14.90625 L 15.671875 -14.90625 L 15.75 -13.9375 L 14.1875 -13.5625 C 14.1875 -13.507812 14.175781 -13.351562 14.15625 -13.09375 C 14.144531 -12.832031 14.132812 -12.40625 14.125 -11.8125 C 14.125 -11.21875 14.125 -10.40625 14.125 -9.375 L 14.125 -5.96875 C 14.125 -4.539062 13.882812 -3.367188 13.40625 -2.453125 C 12.9375 -1.546875 12.285156 -0.867188 11.453125 -0.421875 C 10.617188 0.015625 9.6875 0.234375 8.65625 0.234375 C 6.8125 0.234375 5.367188 -0.269531 4.328125 -1.28125 C 3.285156 -2.300781 2.765625 -3.742188 2.765625 -5.609375 L 2.765625 -9.828125 C 2.765625 -10.753906 2.753906 -11.472656 2.734375 -11.984375 C 2.722656 -12.503906 2.710938 -12.882812 2.703125 -13.125 C 2.691406 -13.363281 2.679688 -13.507812 2.671875 -13.5625 L 1.125 -13.9375 Z M 1.171875 -14.90625 "/></g></g></g><g fill="#000000" fill-opacity="1"><g transform="translate(269.00479, 217.082945)"><g><path d="M 1.328125 0 L 1.265625 -0.96875 L 2.8125 -1.34375 C 2.8125 -1.46875 2.816406 -1.648438 2.828125 -1.890625 C 2.835938 -2.140625 2.84375 -2.429688 2.84375 -2.765625 C 2.84375 -3.109375 2.847656 -3.476562 2.859375 -3.875 C 2.867188 -4.269531 2.875 -4.660156 2.875 -5.046875 L 2.875 -9.828125 C 2.875 -10.609375 2.867188 -11.265625 2.859375 -11.796875 C 2.847656 -12.328125 2.832031 -12.738281 2.8125 -13.03125 C 2.800781 -13.332031 2.785156 -13.515625 2.765625 -13.578125 L 1.1875 -13.9375 L 1.265625 -14.90625 L 6.828125 -14.90625 C 8.421875 -14.90625 9.632812 -14.59375 10.46875 -13.96875 C 11.3125 -13.351562 11.734375 -12.445312 11.734375 -11.25 C 11.734375 -10.414062 11.503906 -9.671875 11.046875 -9.015625 C 10.585938 -8.367188 9.945312 -7.859375 9.125 -7.484375 C 8.300781 -7.117188 7.367188 -6.9375 6.328125 -6.9375 L 4.703125 -6.9375 L 4.703125 -8.078125 L 6.140625 -8.078125 C 7.191406 -8.078125 8.007812 -8.335938 8.59375 -8.859375 C 9.175781 -9.390625 9.46875 -10.117188 9.46875 -11.046875 C 9.46875 -11.941406 9.210938 -12.617188 8.703125 -13.078125 C 8.203125 -13.546875 7.476562 -13.78125 6.53125 -13.78125 L 5.046875 -13.78125 C 5.035156 -13.75 5.023438 -13.679688 5.015625 -13.578125 C 5.003906 -13.484375 5 -13.316406 5 -13.078125 C 5 -12.835938 5 -12.488281 5 -12.03125 C 5 -11.570312 5 -10.960938 5 -10.203125 L 5 -5.046875 C 5 -4.328125 5.003906 -3.71875 5.015625 -3.21875 C 5.023438 -2.726562 5.039062 -2.332031 5.0625 -2.03125 C 5.09375 -1.738281 5.113281 -1.507812 5.125 -1.34375 L 6.625 -0.96875 L 6.546875 0 Z M 13.359375 0.25 C 12.609375 0.25 11.945312 0.113281 11.375 -0.15625 C 10.800781 -0.4375 10.242188 -0.90625 9.703125 -1.5625 C 9.171875 -2.226562 8.585938 -3.113281 7.953125 -4.21875 L 6.21875 -7.359375 L 8.125 -7.796875 L 10.875 -3.765625 C 11.34375 -3.066406 11.765625 -2.507812 12.140625 -2.09375 C 12.523438 -1.675781 12.90625 -1.363281 13.28125 -1.15625 C 13.65625 -0.957031 14.0625 -0.816406 14.5 -0.734375 L 14.46875 0.15625 C 14.300781 0.1875 14.117188 0.207031 13.921875 0.21875 C 13.734375 0.238281 13.546875 0.25 13.359375 0.25 Z M 13.359375 0.25 "/></g></g></g><g fill="#000000" fill-opacity="1"><g transform="translate(287.296911, 217.082945)"><g><path d="M 0.078125 0 L 0.03125 -0.96875 L 1.265625 -1.328125 L 6.5 -14.46875 L 7.96875 -15.359375 L 13.515625 -1.328125 L 14.78125 -0.96875 L 14.703125 0 L 9.578125 0 L 9.515625 -0.96875 L 11.078125 -1.328125 L 9.578125 -5.078125 L 9.296875 -5.859375 L 6.53125 -12.765625 L 7.109375 -13.109375 L 4.46875 -5.859375 L 4.1875 -5.109375 L 2.84375 -1.328125 L 4.390625 -0.96875 L 4.34375 0 Z M 3.625 -4.703125 L 3.625 -6.046875 C 3.945312 -6.023438 4.390625 -6.003906 4.953125 -5.984375 C 5.515625 -5.972656 6.203125 -5.96875 7.015625 -5.96875 C 7.804688 -5.96875 8.484375 -5.972656 9.046875 -5.984375 C 9.617188 -6.003906 10.054688 -6.023438 10.359375 -6.046875 L 10.359375 -4.703125 C 9.785156 -4.710938 9.210938 -4.722656 8.640625 -4.734375 C 8.078125 -4.742188 7.535156 -4.75 7.015625 -4.75 C 6.503906 -4.75 5.972656 -4.742188 5.421875 -4.734375 C 4.867188 -4.722656 4.269531 -4.710938 3.625 -4.703125 Z M 3.625 -4.703125 "/></g></g></g><g fill="#000000" fill-opacity="1"><g transform="translate(116.072107, 236.883001)"><g><path d="M 1.5 -1.28125 C 1.5 -1.050781 1.550781 -0.867188 1.65625 -0.734375 C 1.757812 -0.609375 1.910156 -0.546875 2.109375 -0.546875 C 2.441406 -0.546875 2.75 -0.679688 3.03125 -0.953125 C 3.3125 -1.234375 3.539062 -1.609375 3.71875 -2.078125 C 3.90625 -2.554688 4 -3.101562 4 -3.71875 C 4 -3.925781 3.96875 -4.085938 3.90625 -4.203125 C 3.851562 -4.328125 3.785156 -4.390625 3.703125 -4.390625 C 3.597656 -4.390625 3.457031 -4.320312 3.28125 -4.1875 C 3.101562 -4.050781 2.910156 -3.867188 2.703125 -3.640625 C 2.503906 -3.410156 2.3125 -3.15625 2.125 -2.875 C 1.945312 -2.601562 1.796875 -2.328125 1.671875 -2.046875 C 1.554688 -1.765625 1.5 -1.507812 1.5 -1.28125 Z M 0.671875 -2.21875 L 1.859375 -7.1875 L 1.015625 -7.296875 L 1.09375 -7.625 L 2.796875 -8.140625 L 2.984375 -7.96875 C 2.921875 -7.738281 2.859375 -7.519531 2.796875 -7.3125 C 2.742188 -7.113281 2.695312 -6.925781 2.65625 -6.75 C 2.625 -6.582031 2.585938 -6.429688 2.546875 -6.296875 L 2.140625 -4.734375 C 2.023438 -4.273438 1.90625 -3.828125 1.78125 -3.390625 C 1.65625 -2.953125 1.492188 -2.445312 1.296875 -1.875 L 1.203125 -1.875 C 1.472656 -2.570312 1.785156 -3.160156 2.140625 -3.640625 C 2.492188 -4.128906 2.847656 -4.5 3.203125 -4.75 C 3.554688 -5.007812 3.867188 -5.140625 4.140625 -5.140625 C 4.398438 -5.140625 4.609375 -5.023438 4.765625 -4.796875 C 4.921875 -4.578125 5 -4.285156 5 -3.921875 C 5 -3.390625 4.898438 -2.878906 4.703125 -2.390625 C 4.503906 -1.910156 4.25 -1.484375 3.9375 -1.109375 C 3.625 -0.734375 3.289062 -0.4375 2.9375 -0.21875 C 2.582031 -0.0078125 2.253906 0.09375 1.953125 0.09375 C 1.546875 0.09375 1.226562 0 1 -0.1875 C 0.78125 -0.375 0.640625 -0.640625 0.578125 -0.984375 C 0.523438 -1.328125 0.554688 -1.738281 0.671875 -2.21875 Z M 0.671875 -2.21875 "/></g></g></g><g fill="#000000" fill-opacity="1"><g transform="translate(123.798915, 236.883001)"><g><path d="M 2.125 -5.140625 C 2.269531 -5.140625 2.378906 -5.09375 2.453125 -5 C 2.535156 -4.90625 2.578125 -4.78125 2.578125 -4.625 C 2.578125 -4.519531 2.546875 -4.34375 2.484375 -4.09375 C 2.421875 -3.851562 2.34375 -3.570312 2.25 -3.25 C 2.164062 -2.925781 2.078125 -2.601562 1.984375 -2.28125 C 1.890625 -1.96875 1.8125 -1.6875 1.75 -1.4375 C 1.6875 -1.1875 1.65625 -1.007812 1.65625 -0.90625 C 1.65625 -0.832031 1.671875 -0.769531 1.703125 -0.71875 C 1.742188 -0.675781 1.8125 -0.65625 1.90625 -0.65625 C 2.0625 -0.65625 2.238281 -0.742188 2.4375 -0.921875 C 2.644531 -1.109375 2.851562 -1.351562 3.0625 -1.65625 C 3.28125 -1.957031 3.488281 -2.300781 3.6875 -2.6875 C 3.894531 -3.070312 4.078125 -3.46875 4.234375 -3.875 C 4.398438 -4.28125 4.523438 -4.671875 4.609375 -5.046875 L 5.5 -5.046875 C 5.363281 -4.617188 5.234375 -4.179688 5.109375 -3.734375 C 4.984375 -3.285156 4.875 -2.851562 4.78125 -2.4375 C 4.6875 -2.019531 4.613281 -1.648438 4.5625 -1.328125 C 4.507812 -1.003906 4.484375 -0.753906 4.484375 -0.578125 C 4.648438 -0.671875 4.804688 -0.789062 4.953125 -0.9375 C 5.109375 -1.082031 5.265625 -1.25 5.421875 -1.4375 L 5.703125 -1.109375 C 5.515625 -0.867188 5.316406 -0.660156 5.109375 -0.484375 C 4.910156 -0.304688 4.71875 -0.164062 4.53125 -0.0625 C 4.34375 0.0390625 4.164062 0.09375 4 0.09375 C 3.851562 0.09375 3.742188 0.0507812 3.671875 -0.03125 C 3.597656 -0.125 3.5625 -0.25 3.5625 -0.40625 C 3.5625 -0.539062 3.582031 -0.726562 3.625 -0.96875 C 3.664062 -1.207031 3.734375 -1.515625 3.828125 -1.890625 C 3.921875 -2.273438 4.050781 -2.757812 4.21875 -3.34375 L 4.34375 -3.34375 C 4.1875 -2.914062 4.003906 -2.5 3.796875 -2.09375 C 3.585938 -1.6875 3.351562 -1.316406 3.09375 -0.984375 C 2.84375 -0.660156 2.578125 -0.398438 2.296875 -0.203125 C 2.023438 -0.00390625 1.742188 0.09375 1.453125 0.09375 C 1.222656 0.09375 1.039062 0.03125 0.90625 -0.09375 C 0.78125 -0.226562 0.71875 -0.410156 0.71875 -0.640625 C 0.71875 -0.765625 0.75 -0.953125 0.8125 -1.203125 C 0.875 -1.453125 0.945312 -1.738281 1.03125 -2.0625 C 1.125 -2.382812 1.21875 -2.703125 1.3125 -3.015625 C 1.414062 -3.335938 1.5 -3.628906 1.5625 -3.890625 C 1.625 -4.148438 1.65625 -4.34375 1.65625 -4.46875 C 1.476562 -4.375 1.3125 -4.25 1.15625 -4.09375 C 1 -3.945312 0.84375 -3.765625 0.6875 -3.546875 L 0.40625 -3.921875 C 0.601562 -4.171875 0.800781 -4.382812 1 -4.5625 C 1.195312 -4.75 1.394531 -4.890625 1.59375 -4.984375 C 1.789062 -5.085938 1.96875 -5.140625 2.125 -5.140625 Z M 3.953125 -5.65625 L 3.484375 -5.796875 L 4.9375 -7.9375 L 5.875 -7.671875 Z M 3.953125 -5.65625 "/></g></g></g><g fill="#000000" fill-opacity="1"><g transform="translate(132.19304, 236.883001)"><g><path d="M 1.34375 0.09375 C 1.09375 0.09375 0.863281 0.0507812 0.65625 -0.03125 C 0.457031 -0.113281 0.289062 -0.21875 0.15625 -0.34375 C 0.03125 -0.476562 -0.03125 -0.625 -0.03125 -0.78125 C -0.03125 -0.882812 -0.0078125 -0.976562 0.03125 -1.0625 C 0.0703125 -1.15625 0.128906 -1.242188 0.203125 -1.328125 C 0.421875 -1.066406 0.648438 -0.859375 0.890625 -0.703125 C 1.140625 -0.554688 1.375 -0.484375 1.59375 -0.484375 C 1.8125 -0.484375 1.984375 -0.535156 2.109375 -0.640625 C 2.234375 -0.753906 2.296875 -0.921875 2.296875 -1.140625 C 2.296875 -1.273438 2.25 -1.414062 2.15625 -1.5625 C 2.070312 -1.707031 1.894531 -1.890625 1.625 -2.109375 C 1.375 -2.347656 1.175781 -2.550781 1.03125 -2.71875 C 0.882812 -2.882812 0.785156 -3.035156 0.734375 -3.171875 C 0.679688 -3.304688 0.65625 -3.445312 0.65625 -3.59375 C 0.65625 -3.875 0.734375 -4.128906 0.890625 -4.359375 C 1.054688 -4.597656 1.273438 -4.785156 1.546875 -4.921875 C 1.828125 -5.066406 2.132812 -5.140625 2.46875 -5.140625 C 2.664062 -5.140625 2.851562 -5.109375 3.03125 -5.046875 C 3.21875 -4.992188 3.367188 -4.914062 3.484375 -4.8125 C 3.609375 -4.71875 3.671875 -4.59375 3.671875 -4.4375 C 3.671875 -4.34375 3.648438 -4.257812 3.609375 -4.1875 C 3.566406 -4.113281 3.515625 -4.039062 3.453125 -3.96875 C 3.253906 -4.164062 3.046875 -4.316406 2.828125 -4.421875 C 2.609375 -4.535156 2.394531 -4.59375 2.1875 -4.59375 C 1.96875 -4.59375 1.796875 -4.53125 1.671875 -4.40625 C 1.546875 -4.28125 1.484375 -4.117188 1.484375 -3.921875 C 1.484375 -3.828125 1.503906 -3.726562 1.546875 -3.625 C 1.585938 -3.53125 1.660156 -3.421875 1.765625 -3.296875 C 1.867188 -3.179688 2.007812 -3.039062 2.1875 -2.875 C 2.4375 -2.632812 2.628906 -2.4375 2.765625 -2.28125 C 2.898438 -2.125 2.992188 -1.984375 3.046875 -1.859375 C 3.097656 -1.734375 3.125 -1.59375 3.125 -1.4375 C 3.125 -1.164062 3.039062 -0.910156 2.875 -0.671875 C 2.707031 -0.441406 2.488281 -0.253906 2.21875 -0.109375 C 1.945312 0.0234375 1.65625 0.09375 1.34375 0.09375 Z M 1.34375 0.09375 "/></g></g></g><g fill="#000000" fill-opacity="1"><g transform="translate(138.292533, 236.883001)"><g><path d="M 5.1875 -5.046875 C 5.125 -4.828125 5.0625 -4.625 5 -4.4375 C 4.945312 -4.25 4.894531 -4.054688 4.84375 -3.859375 C 4.789062 -3.660156 4.734375 -3.445312 4.671875 -3.21875 C 4.617188 -2.988281 4.566406 -2.726562 4.515625 -2.4375 L 3.96875 0.296875 C 3.875 0.796875 3.800781 1.179688 3.75 1.453125 C 3.707031 1.734375 3.679688 1.925781 3.671875 2.03125 L 4.359375 2.203125 L 4.25 2.578125 L 1.765625 2.578125 L 1.8125 2.203125 L 2.703125 2.03125 C 2.734375 1.875 2.769531 1.675781 2.8125 1.4375 C 2.863281 1.207031 2.921875 0.957031 2.984375 0.6875 L 3.265625 -0.640625 C 3.328125 -0.941406 3.40625 -1.300781 3.5 -1.71875 C 3.601562 -2.144531 3.742188 -2.6875 3.921875 -3.34375 L 4.046875 -3.34375 C 3.796875 -2.65625 3.5 -2.054688 3.15625 -1.546875 C 2.820312 -1.035156 2.484375 -0.632812 2.140625 -0.34375 C 1.804688 -0.0507812 1.5 0.09375 1.21875 0.09375 C 0.9375 0.09375 0.722656 -0.015625 0.578125 -0.234375 C 0.429688 -0.460938 0.351562 -0.753906 0.34375 -1.109375 C 0.34375 -1.648438 0.429688 -2.160156 0.609375 -2.640625 C 0.785156 -3.117188 1.023438 -3.546875 1.328125 -3.921875 C 1.628906 -4.296875 1.960938 -4.59375 2.328125 -4.8125 C 2.703125 -5.03125 3.078125 -5.140625 3.453125 -5.140625 C 3.671875 -5.140625 3.859375 -5.082031 4.015625 -4.96875 C 4.171875 -4.863281 4.328125 -4.71875 4.484375 -4.53125 L 4.25 -4.15625 C 4.125 -4.300781 3.972656 -4.40625 3.796875 -4.46875 C 3.617188 -4.53125 3.4375 -4.5625 3.25 -4.5625 C 2.988281 -4.5625 2.742188 -4.472656 2.515625 -4.296875 C 2.285156 -4.117188 2.082031 -3.878906 1.90625 -3.578125 C 1.726562 -3.273438 1.585938 -2.925781 1.484375 -2.53125 C 1.390625 -2.144531 1.34375 -1.738281 1.34375 -1.3125 C 1.34375 -1.113281 1.363281 -0.957031 1.40625 -0.84375 C 1.457031 -0.726562 1.53125 -0.671875 1.625 -0.671875 C 1.75 -0.671875 1.921875 -0.769531 2.140625 -0.96875 C 2.359375 -1.175781 2.59375 -1.453125 2.84375 -1.796875 C 3.09375 -2.148438 3.328125 -2.550781 3.546875 -3 C 3.773438 -3.457031 3.972656 -3.921875 4.140625 -4.390625 L 4.25 -4.625 L 4.703125 -5.046875 Z M 5.1875 -5.046875 "/></g></g></g><g fill="#000000" fill-opacity="1"><g transform="translate(146.089586, 236.883001)"><g><path d="M 2.125 -5.140625 C 2.269531 -5.140625 2.378906 -5.09375 2.453125 -5 C 2.535156 -4.90625 2.578125 -4.78125 2.578125 -4.625 C 2.578125 -4.519531 2.546875 -4.34375 2.484375 -4.09375 C 2.421875 -3.851562 2.34375 -3.570312 2.25 -3.25 C 2.164062 -2.925781 2.078125 -2.601562 1.984375 -2.28125 C 1.890625 -1.96875 1.8125 -1.6875 1.75 -1.4375 C 1.6875 -1.1875 1.65625 -1.007812 1.65625 -0.90625 C 1.65625 -0.832031 1.671875 -0.769531 1.703125 -0.71875 C 1.742188 -0.675781 1.8125 -0.65625 1.90625 -0.65625 C 2.0625 -0.65625 2.238281 -0.742188 2.4375 -0.921875 C 2.644531 -1.109375 2.851562 -1.351562 3.0625 -1.65625 C 3.28125 -1.957031 3.488281 -2.300781 3.6875 -2.6875 C 3.894531 -3.070312 4.078125 -3.46875 4.234375 -3.875 C 4.398438 -4.28125 4.523438 -4.671875 4.609375 -5.046875 L 5.5 -5.046875 C 5.363281 -4.617188 5.234375 -4.179688 5.109375 -3.734375 C 4.984375 -3.285156 4.875 -2.851562 4.78125 -2.4375 C 4.6875 -2.019531 4.613281 -1.648438 4.5625 -1.328125 C 4.507812 -1.003906 4.484375 -0.753906 4.484375 -0.578125 C 4.648438 -0.671875 4.804688 -0.789062 4.953125 -0.9375 C 5.109375 -1.082031 5.265625 -1.25 5.421875 -1.4375 L 5.703125 -1.109375 C 5.515625 -0.867188 5.316406 -0.660156 5.109375 -0.484375 C 4.910156 -0.304688 4.71875 -0.164062 4.53125 -0.0625 C 4.34375 0.0390625 4.164062 0.09375 4 0.09375 C 3.851562 0.09375 3.742188 0.0507812 3.671875 -0.03125 C 3.597656 -0.125 3.5625 -0.25 3.5625 -0.40625 C 3.5625 -0.539062 3.582031 -0.726562 3.625 -0.96875 C 3.664062 -1.207031 3.734375 -1.515625 3.828125 -1.890625 C 3.921875 -2.273438 4.050781 -2.757812 4.21875 -3.34375 L 4.34375 -3.34375 C 4.1875 -2.914062 4.003906 -2.5 3.796875 -2.09375 C 3.585938 -1.6875 3.351562 -1.316406 3.09375 -0.984375 C 2.84375 -0.660156 2.578125 -0.398438 2.296875 -0.203125 C 2.023438 -0.00390625 1.742188 0.09375 1.453125 0.09375 C 1.222656 0.09375 1.039062 0.03125 0.90625 -0.09375 C 0.78125 -0.226562 0.71875 -0.410156 0.71875 -0.640625 C 0.71875 -0.765625 0.75 -0.953125 0.8125 -1.203125 C 0.875 -1.453125 0.945312 -1.738281 1.03125 -2.0625 C 1.125 -2.382812 1.21875 -2.703125 1.3125 -3.015625 C 1.414062 -3.335938 1.5 -3.628906 1.5625 -3.890625 C 1.625 -4.148438 1.65625 -4.34375 1.65625 -4.46875 C 1.476562 -4.375 1.3125 -4.25 1.15625 -4.09375 C 1 -3.945312 0.84375 -3.765625 0.6875 -3.546875 L 0.40625 -3.921875 C 0.601562 -4.171875 0.800781 -4.382812 1 -4.5625 C 1.195312 -4.75 1.394531 -4.890625 1.59375 -4.984375 C 1.789062 -5.085938 1.96875 -5.140625 2.125 -5.140625 Z M 2.125 -5.140625 "/></g></g></g><g fill="#000000" fill-opacity="1"><g transform="translate(154.483712, 236.883001)"><g><path d="M 2.046875 0.09375 C 1.578125 0.09375 1.179688 -0.0664062 0.859375 -0.390625 C 0.546875 -0.710938 0.390625 -1.148438 0.390625 -1.703125 C 0.390625 -2.117188 0.460938 -2.53125 0.609375 -2.9375 C 0.753906 -3.34375 0.953125 -3.707031 1.203125 -4.03125 C 1.460938 -4.363281 1.765625 -4.628906 2.109375 -4.828125 C 2.460938 -5.035156 2.84375 -5.140625 3.25 -5.140625 C 3.632812 -5.140625 3.921875 -5.046875 4.109375 -4.859375 C 4.296875 -4.679688 4.390625 -4.476562 4.390625 -4.25 C 4.390625 -4.03125 4.328125 -3.816406 4.203125 -3.609375 C 4.078125 -3.410156 3.878906 -3.210938 3.609375 -3.015625 C 3.347656 -2.828125 3.019531 -2.632812 2.625 -2.4375 C 2.226562 -2.238281 1.757812 -2.046875 1.21875 -1.859375 L 1.21875 -2.359375 C 1.707031 -2.546875 2.117188 -2.726562 2.453125 -2.90625 C 2.785156 -3.09375 3.035156 -3.285156 3.203125 -3.484375 C 3.378906 -3.691406 3.46875 -3.90625 3.46875 -4.125 C 3.46875 -4.289062 3.414062 -4.414062 3.3125 -4.5 C 3.21875 -4.582031 3.085938 -4.625 2.921875 -4.625 C 2.648438 -4.625 2.394531 -4.503906 2.15625 -4.265625 C 1.914062 -4.035156 1.722656 -3.71875 1.578125 -3.3125 C 1.429688 -2.914062 1.359375 -2.457031 1.359375 -1.9375 C 1.359375 -1.53125 1.453125 -1.210938 1.640625 -0.984375 C 1.835938 -0.753906 2.082031 -0.640625 2.375 -0.640625 C 2.5625 -0.640625 2.785156 -0.703125 3.046875 -0.828125 C 3.304688 -0.960938 3.550781 -1.1875 3.78125 -1.5 L 4.0625 -1.109375 C 3.78125 -0.734375 3.460938 -0.4375 3.109375 -0.21875 C 2.753906 -0.0078125 2.398438 0.09375 2.046875 0.09375 Z M 2.046875 0.09375 "/></g></g></g><g fill="#000000" fill-opacity="1"><g transform="translate(161.426132, 236.883001)"><g><path d="M 1.203125 0.09375 C 0.921875 0.09375 0.707031 -0.015625 0.5625 -0.234375 C 0.414062 -0.460938 0.34375 -0.753906 0.34375 -1.109375 C 0.34375 -1.648438 0.429688 -2.160156 0.609375 -2.640625 C 0.796875 -3.128906 1.039062 -3.5625 1.34375 -3.9375 C 1.65625 -4.3125 1.988281 -4.601562 2.34375 -4.8125 C 2.707031 -5.03125 3.070312 -5.140625 3.4375 -5.140625 C 3.632812 -5.140625 3.804688 -5.082031 3.953125 -4.96875 C 4.109375 -4.863281 4.265625 -4.71875 4.421875 -4.53125 L 4.203125 -4.15625 C 4.078125 -4.289062 3.925781 -4.390625 3.75 -4.453125 C 3.582031 -4.523438 3.410156 -4.5625 3.234375 -4.5625 C 2.953125 -4.5625 2.691406 -4.460938 2.453125 -4.265625 C 2.222656 -4.078125 2.023438 -3.820312 1.859375 -3.5 C 1.691406 -3.1875 1.5625 -2.84375 1.46875 -2.46875 C 1.382812 -2.09375 1.34375 -1.707031 1.34375 -1.3125 C 1.34375 -1.113281 1.363281 -0.957031 1.40625 -0.84375 C 1.445312 -0.726562 1.519531 -0.671875 1.625 -0.671875 C 1.75 -0.671875 1.910156 -0.765625 2.109375 -0.953125 C 2.316406 -1.148438 2.539062 -1.425781 2.78125 -1.78125 C 3.03125 -2.132812 3.265625 -2.53125 3.484375 -2.96875 C 3.710938 -3.414062 3.910156 -3.890625 4.078125 -4.390625 L 4.140625 -4.625 L 4.734375 -7.1875 L 3.828125 -7.296875 L 3.890625 -7.625 L 5.65625 -8.140625 L 5.84375 -7.96875 C 5.78125 -7.738281 5.703125 -7.457031 5.609375 -7.125 C 5.523438 -6.789062 5.4375 -6.4375 5.34375 -6.0625 C 5.257812 -5.6875 5.171875 -5.316406 5.078125 -4.953125 L 4.546875 -2.890625 C 4.421875 -2.367188 4.316406 -1.898438 4.234375 -1.484375 C 4.160156 -1.078125 4.125 -0.773438 4.125 -0.578125 C 4.300781 -0.671875 4.46875 -0.789062 4.625 -0.9375 C 4.78125 -1.082031 4.9375 -1.25 5.09375 -1.4375 L 5.375 -1.109375 C 5.175781 -0.867188 4.972656 -0.660156 4.765625 -0.484375 C 4.566406 -0.304688 4.375 -0.164062 4.1875 -0.0625 C 4 0.0390625 3.828125 0.09375 3.671875 0.09375 C 3.523438 0.09375 3.410156 0.0507812 3.328125 -0.03125 C 3.253906 -0.125 3.21875 -0.25 3.21875 -0.40625 C 3.21875 -0.539062 3.238281 -0.722656 3.28125 -0.953125 C 3.320312 -1.191406 3.390625 -1.503906 3.484375 -1.890625 C 3.578125 -2.273438 3.707031 -2.757812 3.875 -3.34375 L 4 -3.34375 C 3.757812 -2.65625 3.472656 -2.054688 3.140625 -1.546875 C 2.804688 -1.035156 2.46875 -0.632812 2.125 -0.34375 C 1.789062 -0.0507812 1.484375 0.09375 1.203125 0.09375 Z M 1.203125 0.09375 "/></g></g></g><g fill="#000000" fill-opacity="1"><g transform="translate(169.46904, 236.883001)"><g><path d="M 1.1875 0.09375 C 0.914062 0.09375 0.707031 -0.015625 0.5625 -0.234375 C 0.414062 -0.460938 0.34375 -0.753906 0.34375 -1.109375 C 0.34375 -1.660156 0.429688 -2.175781 0.609375 -2.65625 C 0.796875 -3.132812 1.039062 -3.5625 1.34375 -3.9375 C 1.65625 -4.3125 1.988281 -4.601562 2.34375 -4.8125 C 2.707031 -5.03125 3.066406 -5.140625 3.421875 -5.140625 C 3.628906 -5.140625 3.8125 -5.082031 3.96875 -4.96875 C 4.125 -4.863281 4.28125 -4.71875 4.4375 -4.53125 L 4.203125 -4.15625 C 4.078125 -4.300781 3.925781 -4.40625 3.75 -4.46875 C 3.582031 -4.53125 3.40625 -4.5625 3.21875 -4.5625 C 2.96875 -4.5625 2.726562 -4.472656 2.5 -4.296875 C 2.269531 -4.117188 2.066406 -3.878906 1.890625 -3.578125 C 1.722656 -3.273438 1.585938 -2.925781 1.484375 -2.53125 C 1.390625 -2.144531 1.34375 -1.738281 1.34375 -1.3125 C 1.34375 -1.113281 1.363281 -0.957031 1.40625 -0.84375 C 1.445312 -0.726562 1.519531 -0.671875 1.625 -0.671875 C 1.75 -0.671875 1.910156 -0.765625 2.109375 -0.953125 C 2.316406 -1.148438 2.539062 -1.425781 2.78125 -1.78125 C 3.03125 -2.132812 3.265625 -2.53125 3.484375 -2.96875 C 3.710938 -3.414062 3.910156 -3.890625 4.078125 -4.390625 L 4.203125 -4.625 L 4.640625 -5.046875 L 5.140625 -5.046875 C 5.015625 -4.617188 4.890625 -4.179688 4.765625 -3.734375 C 4.640625 -3.285156 4.53125 -2.851562 4.4375 -2.4375 C 4.34375 -2.019531 4.265625 -1.648438 4.203125 -1.328125 C 4.148438 -1.003906 4.125 -0.753906 4.125 -0.578125 C 4.300781 -0.671875 4.46875 -0.789062 4.625 -0.9375 C 4.78125 -1.082031 4.9375 -1.25 5.09375 -1.4375 L 5.375 -1.109375 C 5.175781 -0.867188 4.972656 -0.660156 4.765625 -0.484375 C 4.566406 -0.304688 4.375 -0.164062 4.1875 -0.0625 C 4 0.0390625 3.820312 0.09375 3.65625 0.09375 C 3.519531 0.09375 3.410156 0.0507812 3.328125 -0.03125 C 3.253906 -0.125 3.21875 -0.25 3.21875 -0.40625 C 3.21875 -0.539062 3.238281 -0.722656 3.28125 -0.953125 C 3.320312 -1.191406 3.390625 -1.503906 3.484375 -1.890625 C 3.578125 -2.273438 3.707031 -2.757812 3.875 -3.34375 L 4 -3.34375 C 3.757812 -2.65625 3.472656 -2.054688 3.140625 -1.546875 C 2.804688 -1.035156 2.46875 -0.632812 2.125 -0.34375 C 1.789062 -0.0507812 1.476562 0.09375 1.1875 0.09375 Z M 1.1875 0.09375 "/></g></g></g><g fill="#000000" fill-opacity="1"><g transform="translate(177.511947, 236.883001)"><g/></g></g><g fill="#000000" fill-opacity="1"><g transform="translate(182.159736, 236.883001)"><g><path d="M 1.203125 0.09375 C 0.921875 0.09375 0.707031 -0.015625 0.5625 -0.234375 C 0.414062 -0.460938 0.34375 -0.753906 0.34375 -1.109375 C 0.34375 -1.648438 0.429688 -2.160156 0.609375 -2.640625 C 0.796875 -3.128906 1.039062 -3.5625 1.34375 -3.9375 C 1.65625 -4.3125 1.988281 -4.601562 2.34375 -4.8125 C 2.707031 -5.03125 3.070312 -5.140625 3.4375 -5.140625 C 3.632812 -5.140625 3.804688 -5.082031 3.953125 -4.96875 C 4.109375 -4.863281 4.265625 -4.71875 4.421875 -4.53125 L 4.203125 -4.15625 C 4.078125 -4.289062 3.925781 -4.390625 3.75 -4.453125 C 3.582031 -4.523438 3.410156 -4.5625 3.234375 -4.5625 C 2.953125 -4.5625 2.691406 -4.460938 2.453125 -4.265625 C 2.222656 -4.078125 2.023438 -3.820312 1.859375 -3.5 C 1.691406 -3.1875 1.5625 -2.84375 1.46875 -2.46875 C 1.382812 -2.09375 1.34375 -1.707031 1.34375 -1.3125 C 1.34375 -1.113281 1.363281 -0.957031 1.40625 -0.84375 C 1.445312 -0.726562 1.519531 -0.671875 1.625 -0.671875 C 1.75 -0.671875 1.910156 -0.765625 2.109375 -0.953125 C 2.316406 -1.148438 2.539062 -1.425781 2.78125 -1.78125 C 3.03125 -2.132812 3.265625 -2.53125 3.484375 -2.96875 C 3.710938 -3.414062 3.910156 -3.890625 4.078125 -4.390625 L 4.140625 -4.625 L 4.734375 -7.1875 L 3.828125 -7.296875 L 3.890625 -7.625 L 5.65625 -8.140625 L 5.84375 -7.96875 C 5.78125 -7.738281 5.703125 -7.457031 5.609375 -7.125 C 5.523438 -6.789062 5.4375 -6.4375 5.34375 -6.0625 C 5.257812 -5.6875 5.171875 -5.316406 5.078125 -4.953125 L 4.546875 -2.890625 C 4.421875 -2.367188 4.316406 -1.898438 4.234375 -1.484375 C 4.160156 -1.078125 4.125 -0.773438 4.125 -0.578125 C 4.300781 -0.671875 4.46875 -0.789062 4.625 -0.9375 C 4.78125 -1.082031 4.9375 -1.25 5.09375 -1.4375 L 5.375 -1.109375 C 5.175781 -0.867188 4.972656 -0.660156 4.765625 -0.484375 C 4.566406 -0.304688 4.375 -0.164062 4.1875 -0.0625 C 4 0.0390625 3.828125 0.09375 3.671875 0.09375 C 3.523438 0.09375 3.410156 0.0507812 3.328125 -0.03125 C 3.253906 -0.125 3.21875 -0.25 3.21875 -0.40625 C 3.21875 -0.539062 3.238281 -0.722656 3.28125 -0.953125 C 3.320312 -1.191406 3.390625 -1.503906 3.484375 -1.890625 C 3.578125 -2.273438 3.707031 -2.757812 3.875 -3.34375 L 4 -3.34375 C 3.757812 -2.65625 3.472656 -2.054688 3.140625 -1.546875 C 2.804688 -1.035156 2.46875 -0.632812 2.125 -0.34375 C 1.789062 -0.0507812 1.484375 0.09375 1.203125 0.09375 Z M 1.203125 0.09375 "/></g></g></g><g fill="#000000" fill-opacity="1"><g transform="translate(190.202643, 236.883001)"><g><path d="M 2.046875 0.09375 C 1.578125 0.09375 1.179688 -0.0664062 0.859375 -0.390625 C 0.546875 -0.710938 0.390625 -1.148438 0.390625 -1.703125 C 0.390625 -2.117188 0.460938 -2.53125 0.609375 -2.9375 C 0.753906 -3.34375 0.953125 -3.707031 1.203125 -4.03125 C 1.460938 -4.363281 1.765625 -4.628906 2.109375 -4.828125 C 2.460938 -5.035156 2.84375 -5.140625 3.25 -5.140625 C 3.632812 -5.140625 3.921875 -5.046875 4.109375 -4.859375 C 4.296875 -4.679688 4.390625 -4.476562 4.390625 -4.25 C 4.390625 -4.03125 4.328125 -3.816406 4.203125 -3.609375 C 4.078125 -3.410156 3.878906 -3.210938 3.609375 -3.015625 C 3.347656 -2.828125 3.019531 -2.632812 2.625 -2.4375 C 2.226562 -2.238281 1.757812 -2.046875 1.21875 -1.859375 L 1.21875 -2.359375 C 1.707031 -2.546875 2.117188 -2.726562 2.453125 -2.90625 C 2.785156 -3.09375 3.035156 -3.285156 3.203125 -3.484375 C 3.378906 -3.691406 3.46875 -3.90625 3.46875 -4.125 C 3.46875 -4.289062 3.414062 -4.414062 3.3125 -4.5 C 3.21875 -4.582031 3.085938 -4.625 2.921875 -4.625 C 2.648438 -4.625 2.394531 -4.503906 2.15625 -4.265625 C 1.914062 -4.035156 1.722656 -3.71875 1.578125 -3.3125 C 1.429688 -2.914062 1.359375 -2.457031 1.359375 -1.9375 C 1.359375 -1.53125 1.453125 -1.210938 1.640625 -0.984375 C 1.835938 -0.753906 2.082031 -0.640625 2.375 -0.640625 C 2.5625 -0.640625 2.785156 -0.703125 3.046875 -0.828125 C 3.304688 -0.960938 3.550781 -1.1875 3.78125 -1.5 L 4.0625 -1.109375 C 3.78125 -0.734375 3.460938 -0.4375 3.109375 -0.21875 C 2.753906 -0.0078125 2.398438 0.09375 2.046875 0.09375 Z M 2.046875 0.09375 "/></g></g></g><g fill="#000000" fill-opacity="1"><g transform="translate(197.145063, 236.883001)"><g/></g></g><g fill="#000000" fill-opacity="1"><g transform="translate(201.792852, 236.883001)"><g><path d="M 6.65625 0.09375 C 6.5 0.09375 6.378906 0.0507812 6.296875 -0.03125 C 6.222656 -0.125 6.1875 -0.25 6.1875 -0.40625 C 6.1875 -0.507812 6.21875 -0.6875 6.28125 -0.9375 C 6.34375 -1.1875 6.421875 -1.472656 6.515625 -1.796875 C 6.609375 -2.117188 6.695312 -2.4375 6.78125 -2.75 C 6.875 -3.070312 6.953125 -3.359375 7.015625 -3.609375 C 7.078125 -3.867188 7.109375 -4.050781 7.109375 -4.15625 C 7.109375 -4.3125 7.039062 -4.390625 6.90625 -4.390625 C 6.757812 -4.390625 6.585938 -4.300781 6.390625 -4.125 C 6.191406 -3.945312 5.984375 -3.703125 5.765625 -3.390625 C 5.546875 -3.085938 5.332031 -2.742188 5.125 -2.359375 C 4.914062 -1.972656 4.726562 -1.578125 4.5625 -1.171875 C 4.40625 -0.765625 4.285156 -0.375 4.203125 0 L 3.3125 0 C 3.382812 -0.269531 3.46875 -0.566406 3.5625 -0.890625 C 3.65625 -1.222656 3.742188 -1.554688 3.828125 -1.890625 C 3.921875 -2.234375 4.003906 -2.554688 4.078125 -2.859375 C 4.148438 -3.171875 4.207031 -3.441406 4.25 -3.671875 C 4.289062 -3.898438 4.3125 -4.0625 4.3125 -4.15625 C 4.3125 -4.3125 4.242188 -4.390625 4.109375 -4.390625 C 3.960938 -4.390625 3.789062 -4.300781 3.59375 -4.125 C 3.394531 -3.945312 3.1875 -3.703125 2.96875 -3.390625 C 2.75 -3.085938 2.535156 -2.742188 2.328125 -2.359375 C 2.128906 -1.972656 1.945312 -1.578125 1.78125 -1.171875 C 1.613281 -0.765625 1.488281 -0.375 1.40625 0 L 0.5 0 C 0.632812 -0.425781 0.765625 -0.863281 0.890625 -1.3125 C 1.015625 -1.757812 1.125 -2.1875 1.21875 -2.59375 C 1.3125 -3.007812 1.382812 -3.378906 1.4375 -3.703125 C 1.5 -4.035156 1.53125 -4.289062 1.53125 -4.46875 C 1.351562 -4.375 1.1875 -4.25 1.03125 -4.09375 C 0.875 -3.945312 0.71875 -3.765625 0.5625 -3.546875 L 0.296875 -3.921875 C 0.492188 -4.171875 0.691406 -4.382812 0.890625 -4.5625 C 1.085938 -4.75 1.28125 -4.890625 1.46875 -4.984375 C 1.664062 -5.085938 1.84375 -5.140625 2 -5.140625 C 2.144531 -5.140625 2.25 -5.09375 2.3125 -5 C 2.382812 -4.90625 2.421875 -4.78125 2.421875 -4.625 C 2.421875 -4.5 2.398438 -4.316406 2.359375 -4.078125 C 2.316406 -3.835938 2.25 -3.523438 2.15625 -3.140625 C 2.070312 -2.753906 1.945312 -2.273438 1.78125 -1.703125 L 1.671875 -1.703125 C 1.816406 -2.128906 2 -2.546875 2.21875 -2.953125 C 2.4375 -3.359375 2.671875 -3.722656 2.921875 -4.046875 C 3.171875 -4.367188 3.429688 -4.628906 3.703125 -4.828125 C 3.972656 -5.035156 4.238281 -5.140625 4.5 -5.140625 C 4.726562 -5.140625 4.90625 -5.070312 5.03125 -4.9375 C 5.164062 -4.8125 5.234375 -4.632812 5.234375 -4.40625 C 5.234375 -4.269531 5.207031 -4.082031 5.15625 -3.84375 C 5.113281 -3.601562 5.035156 -3.304688 4.921875 -2.953125 C 4.816406 -2.597656 4.679688 -2.179688 4.515625 -1.703125 L 4.453125 -1.703125 C 4.609375 -2.117188 4.789062 -2.53125 5 -2.9375 C 5.21875 -3.34375 5.453125 -3.710938 5.703125 -4.046875 C 5.960938 -4.378906 6.226562 -4.644531 6.5 -4.84375 C 6.769531 -5.039062 7.035156 -5.140625 7.296875 -5.140625 C 7.523438 -5.140625 7.707031 -5.070312 7.84375 -4.9375 C 7.976562 -4.8125 8.046875 -4.632812 8.046875 -4.40625 C 8.046875 -4.28125 8.015625 -4.085938 7.953125 -3.828125 C 7.890625 -3.578125 7.8125 -3.289062 7.71875 -2.96875 C 7.625 -2.644531 7.53125 -2.320312 7.4375 -2 C 7.34375 -1.6875 7.265625 -1.398438 7.203125 -1.140625 C 7.140625 -0.890625 7.109375 -0.703125 7.109375 -0.578125 C 7.285156 -0.671875 7.453125 -0.789062 7.609375 -0.9375 C 7.765625 -1.082031 7.921875 -1.25 8.078125 -1.4375 L 8.359375 -1.109375 C 8.160156 -0.867188 7.960938 -0.660156 7.765625 -0.484375 C 7.566406 -0.304688 7.367188 -0.164062 7.171875 -0.0625 C 6.984375 0.0390625 6.8125 0.09375 6.65625 0.09375 Z M 6.65625 0.09375 "/></g></g></g><g fill="#000000" fill-opacity="1"><g transform="translate(212.961604, 236.883001)"><g><path d="M 1.1875 0.09375 C 0.914062 0.09375 0.707031 -0.015625 0.5625 -0.234375 C 0.414062 -0.460938 0.34375 -0.753906 0.34375 -1.109375 C 0.34375 -1.660156 0.429688 -2.175781 0.609375 -2.65625 C 0.796875 -3.132812 1.039062 -3.5625 1.34375 -3.9375 C 1.65625 -4.3125 1.988281 -4.601562 2.34375 -4.8125 C 2.707031 -5.03125 3.066406 -5.140625 3.421875 -5.140625 C 3.628906 -5.140625 3.8125 -5.082031 3.96875 -4.96875 C 4.125 -4.863281 4.28125 -4.71875 4.4375 -4.53125 L 4.203125 -4.15625 C 4.078125 -4.300781 3.925781 -4.40625 3.75 -4.46875 C 3.582031 -4.53125 3.40625 -4.5625 3.21875 -4.5625 C 2.96875 -4.5625 2.726562 -4.472656 2.5 -4.296875 C 2.269531 -4.117188 2.066406 -3.878906 1.890625 -3.578125 C 1.722656 -3.273438 1.585938 -2.925781 1.484375 -2.53125 C 1.390625 -2.144531 1.34375 -1.738281 1.34375 -1.3125 C 1.34375 -1.113281 1.363281 -0.957031 1.40625 -0.84375 C 1.445312 -0.726562 1.519531 -0.671875 1.625 -0.671875 C 1.75 -0.671875 1.910156 -0.765625 2.109375 -0.953125 C 2.316406 -1.148438 2.539062 -1.425781 2.78125 -1.78125 C 3.03125 -2.132812 3.265625 -2.53125 3.484375 -2.96875 C 3.710938 -3.414062 3.910156 -3.890625 4.078125 -4.390625 L 4.203125 -4.625 L 4.640625 -5.046875 L 5.140625 -5.046875 C 5.015625 -4.617188 4.890625 -4.179688 4.765625 -3.734375 C 4.640625 -3.285156 4.53125 -2.851562 4.4375 -2.4375 C 4.34375 -2.019531 4.265625 -1.648438 4.203125 -1.328125 C 4.148438 -1.003906 4.125 -0.753906 4.125 -0.578125 C 4.300781 -0.671875 4.46875 -0.789062 4.625 -0.9375 C 4.78125 -1.082031 4.9375 -1.25 5.09375 -1.4375 L 5.375 -1.109375 C 5.175781 -0.867188 4.972656 -0.660156 4.765625 -0.484375 C 4.566406 -0.304688 4.375 -0.164062 4.1875 -0.0625 C 4 0.0390625 3.820312 0.09375 3.65625 0.09375 C 3.519531 0.09375 3.410156 0.0507812 3.328125 -0.03125 C 3.253906 -0.125 3.21875 -0.25 3.21875 -0.40625 C 3.21875 -0.539062 3.238281 -0.722656 3.28125 -0.953125 C 3.320312 -1.191406 3.390625 -1.503906 3.484375 -1.890625 C 3.578125 -2.273438 3.707031 -2.757812 3.875 -3.34375 L 4 -3.34375 C 3.757812 -2.65625 3.472656 -2.054688 3.140625 -1.546875 C 2.804688 -1.035156 2.46875 -0.632812 2.125 -0.34375 C 1.789062 -0.0507812 1.476562 0.09375 1.1875 0.09375 Z M 1.1875 0.09375 "/></g></g></g><g fill="#000000" fill-opacity="1"><g transform="translate(221.004511, 236.883001)"><g><path d="M 1.34375 0.09375 C 1.09375 0.09375 0.863281 0.0507812 0.65625 -0.03125 C 0.457031 -0.113281 0.289062 -0.21875 0.15625 -0.34375 C 0.03125 -0.476562 -0.03125 -0.625 -0.03125 -0.78125 C -0.03125 -0.882812 -0.0078125 -0.976562 0.03125 -1.0625 C 0.0703125 -1.15625 0.128906 -1.242188 0.203125 -1.328125 C 0.421875 -1.066406 0.648438 -0.859375 0.890625 -0.703125 C 1.140625 -0.554688 1.375 -0.484375 1.59375 -0.484375 C 1.8125 -0.484375 1.984375 -0.535156 2.109375 -0.640625 C 2.234375 -0.753906 2.296875 -0.921875 2.296875 -1.140625 C 2.296875 -1.273438 2.25 -1.414062 2.15625 -1.5625 C 2.070312 -1.707031 1.894531 -1.890625 1.625 -2.109375 C 1.375 -2.347656 1.175781 -2.550781 1.03125 -2.71875 C 0.882812 -2.882812 0.785156 -3.035156 0.734375 -3.171875 C 0.679688 -3.304688 0.65625 -3.445312 0.65625 -3.59375 C 0.65625 -3.875 0.734375 -4.128906 0.890625 -4.359375 C 1.054688 -4.597656 1.273438 -4.785156 1.546875 -4.921875 C 1.828125 -5.066406 2.132812 -5.140625 2.46875 -5.140625 C 2.664062 -5.140625 2.851562 -5.109375 3.03125 -5.046875 C 3.21875 -4.992188 3.367188 -4.914062 3.484375 -4.8125 C 3.609375 -4.71875 3.671875 -4.59375 3.671875 -4.4375 C 3.671875 -4.34375 3.648438 -4.257812 3.609375 -4.1875 C 3.566406 -4.113281 3.515625 -4.039062 3.453125 -3.96875 C 3.253906 -4.164062 3.046875 -4.316406 2.828125 -4.421875 C 2.609375 -4.535156 2.394531 -4.59375 2.1875 -4.59375 C 1.96875 -4.59375 1.796875 -4.53125 1.671875 -4.40625 C 1.546875 -4.28125 1.484375 -4.117188 1.484375 -3.921875 C 1.484375 -3.828125 1.503906 -3.726562 1.546875 -3.625 C 1.585938 -3.53125 1.660156 -3.421875 1.765625 -3.296875 C 1.867188 -3.179688 2.007812 -3.039062 2.1875 -2.875 C 2.4375 -2.632812 2.628906 -2.4375 2.765625 -2.28125 C 2.898438 -2.125 2.992188 -1.984375 3.046875 -1.859375 C 3.097656 -1.734375 3.125 -1.59375 3.125 -1.4375 C 3.125 -1.164062 3.039062 -0.910156 2.875 -0.671875 C 2.707031 -0.441406 2.488281 -0.253906 2.21875 -0.109375 C 1.945312 0.0234375 1.65625 0.09375 1.34375 0.09375 Z M 1.34375 0.09375 "/></g></g></g><g fill="#000000" fill-opacity="1"><g transform="translate(227.104006, 236.883001)"><g><path d="M 2.859375 -4.578125 C 2.617188 -4.578125 2.382812 -4.46875 2.15625 -4.25 C 1.925781 -4.03125 1.738281 -3.722656 1.59375 -3.328125 C 1.445312 -2.941406 1.375 -2.476562 1.375 -1.9375 C 1.382812 -1.53125 1.476562 -1.210938 1.65625 -0.984375 C 1.832031 -0.765625 2.0625 -0.65625 2.34375 -0.65625 C 2.5 -0.65625 2.703125 -0.71875 2.953125 -0.84375 C 3.203125 -0.96875 3.445312 -1.1875 3.6875 -1.5 L 3.96875 -1.109375 C 3.6875 -0.734375 3.367188 -0.4375 3.015625 -0.21875 C 2.660156 -0.0078125 2.347656 0.09375 2.078125 0.09375 C 1.742188 0.09375 1.445312 0.0195312 1.1875 -0.125 C 0.9375 -0.269531 0.738281 -0.476562 0.59375 -0.75 C 0.445312 -1.019531 0.375 -1.335938 0.375 -1.703125 C 0.375 -2.117188 0.441406 -2.53125 0.578125 -2.9375 C 0.722656 -3.351562 0.925781 -3.722656 1.1875 -4.046875 C 1.445312 -4.378906 1.753906 -4.644531 2.109375 -4.84375 C 2.472656 -5.039062 2.863281 -5.140625 3.28125 -5.140625 C 3.59375 -5.140625 3.84375 -5.078125 4.03125 -4.953125 C 4.226562 -4.835938 4.328125 -4.671875 4.328125 -4.453125 C 4.328125 -4.347656 4.304688 -4.25 4.265625 -4.15625 C 4.222656 -4.0625 4.15625 -3.976562 4.0625 -3.90625 C 3.863281 -4.113281 3.65625 -4.273438 3.4375 -4.390625 C 3.226562 -4.515625 3.035156 -4.578125 2.859375 -4.578125 Z M 2.859375 -4.578125 "/></g></g></g><g fill="#000000" fill-opacity="1"><g transform="translate(233.718622, 236.883001)"><g><path d="M 1.96875 0.09375 C 1.675781 0.09375 1.40625 0.0195312 1.15625 -0.125 C 0.914062 -0.269531 0.722656 -0.476562 0.578125 -0.75 C 0.441406 -1.019531 0.375 -1.335938 0.375 -1.703125 C 0.375 -2.117188 0.441406 -2.53125 0.578125 -2.9375 C 0.722656 -3.34375 0.921875 -3.707031 1.171875 -4.03125 C 1.429688 -4.363281 1.726562 -4.628906 2.0625 -4.828125 C 2.394531 -5.035156 2.753906 -5.140625 3.140625 -5.140625 C 3.441406 -5.140625 3.710938 -5.066406 3.953125 -4.921875 C 4.203125 -4.773438 4.398438 -4.566406 4.546875 -4.296875 C 4.691406 -4.035156 4.765625 -3.71875 4.765625 -3.34375 C 4.765625 -2.914062 4.691406 -2.5 4.546875 -2.09375 C 4.398438 -1.6875 4.195312 -1.316406 3.9375 -0.984375 C 3.6875 -0.660156 3.390625 -0.398438 3.046875 -0.203125 C 2.710938 -0.00390625 2.351562 0.09375 1.96875 0.09375 Z M 2.234375 -0.453125 C 2.460938 -0.453125 2.671875 -0.53125 2.859375 -0.6875 C 3.054688 -0.84375 3.222656 -1.050781 3.359375 -1.3125 C 3.492188 -1.582031 3.597656 -1.878906 3.671875 -2.203125 C 3.742188 -2.535156 3.78125 -2.875 3.78125 -3.21875 C 3.78125 -3.644531 3.695312 -3.984375 3.53125 -4.234375 C 3.363281 -4.484375 3.15625 -4.609375 2.90625 -4.609375 C 2.675781 -4.609375 2.46875 -4.53125 2.28125 -4.375 C 2.09375 -4.21875 1.925781 -4.003906 1.78125 -3.734375 C 1.644531 -3.472656 1.539062 -3.175781 1.46875 -2.84375 C 1.394531 -2.519531 1.359375 -2.179688 1.359375 -1.828125 C 1.359375 -1.378906 1.441406 -1.035156 1.609375 -0.796875 C 1.773438 -0.566406 1.984375 -0.453125 2.234375 -0.453125 Z M 2.234375 -0.453125 "/></g></g></g><g fill="#000000" fill-opacity="1"><g transform="translate(241.2347, 236.883001)"><g><path d="M 3.3125 -1.296875 C 2.9375 -0.753906 2.578125 -0.382812 2.234375 -0.1875 C 1.890625 0 1.59375 0.09375 1.34375 0.09375 C 1.09375 0.09375 0.894531 0.0195312 0.75 -0.125 C 0.613281 -0.269531 0.546875 -0.457031 0.546875 -0.6875 C 0.546875 -0.78125 0.550781 -0.878906 0.5625 -0.984375 C 0.582031 -1.097656 0.609375 -1.234375 0.640625 -1.390625 L 1.375 -4.4375 L 0.546875 -4.4375 L 0.609375 -4.671875 L 2.421875 -6.0625 L 2.65625 -6.0625 L 2.3125 -4.71875 L 1.578125 -1.515625 C 1.546875 -1.367188 1.519531 -1.253906 1.5 -1.171875 C 1.488281 -1.097656 1.484375 -1.03125 1.484375 -0.96875 C 1.484375 -0.75 1.578125 -0.640625 1.765625 -0.640625 C 1.890625 -0.640625 2.054688 -0.710938 2.265625 -0.859375 C 2.472656 -1.015625 2.726562 -1.289062 3.03125 -1.6875 Z M 1.828125 -4.4375 L 1.953125 -5.015625 L 3.671875 -5.015625 L 3.546875 -4.4375 Z M 1.828125 -4.4375 "/></g></g></g><g fill="#000000" fill-opacity="1"><g transform="translate(247.170292, 236.883001)"><g><path d="M 1.1875 0.09375 C 0.914062 0.09375 0.707031 -0.015625 0.5625 -0.234375 C 0.414062 -0.460938 0.34375 -0.753906 0.34375 -1.109375 C 0.34375 -1.660156 0.429688 -2.175781 0.609375 -2.65625 C 0.796875 -3.132812 1.039062 -3.5625 1.34375 -3.9375 C 1.65625 -4.3125 1.988281 -4.601562 2.34375 -4.8125 C 2.707031 -5.03125 3.066406 -5.140625 3.421875 -5.140625 C 3.628906 -5.140625 3.8125 -5.082031 3.96875 -4.96875 C 4.125 -4.863281 4.28125 -4.71875 4.4375 -4.53125 L 4.203125 -4.15625 C 4.078125 -4.300781 3.925781 -4.40625 3.75 -4.46875 C 3.582031 -4.53125 3.40625 -4.5625 3.21875 -4.5625 C 2.96875 -4.5625 2.726562 -4.472656 2.5 -4.296875 C 2.269531 -4.117188 2.066406 -3.878906 1.890625 -3.578125 C 1.722656 -3.273438 1.585938 -2.925781 1.484375 -2.53125 C 1.390625 -2.144531 1.34375 -1.738281 1.34375 -1.3125 C 1.34375 -1.113281 1.363281 -0.957031 1.40625 -0.84375 C 1.445312 -0.726562 1.519531 -0.671875 1.625 -0.671875 C 1.75 -0.671875 1.910156 -0.765625 2.109375 -0.953125 C 2.316406 -1.148438 2.539062 -1.425781 2.78125 -1.78125 C 3.03125 -2.132812 3.265625 -2.53125 3.484375 -2.96875 C 3.710938 -3.414062 3.910156 -3.890625 4.078125 -4.390625 L 4.203125 -4.625 L 4.640625 -5.046875 L 5.140625 -5.046875 C 5.015625 -4.617188 4.890625 -4.179688 4.765625 -3.734375 C 4.640625 -3.285156 4.53125 -2.851562 4.4375 -2.4375 C 4.34375 -2.019531 4.265625 -1.648438 4.203125 -1.328125 C 4.148438 -1.003906 4.125 -0.753906 4.125 -0.578125 C 4.300781 -0.671875 4.46875 -0.789062 4.625 -0.9375 C 4.78125 -1.082031 4.9375 -1.25 5.09375 -1.4375 L 5.375 -1.109375 C 5.175781 -0.867188 4.972656 -0.660156 4.765625 -0.484375 C 4.566406 -0.304688 4.375 -0.164062 4.1875 -0.0625 C 4 0.0390625 3.820312 0.09375 3.65625 0.09375 C 3.519531 0.09375 3.410156 0.0507812 3.328125 -0.03125 C 3.253906 -0.125 3.21875 -0.25 3.21875 -0.40625 C 3.21875 -0.539062 3.238281 -0.722656 3.28125 -0.953125 C 3.320312 -1.191406 3.390625 -1.503906 3.484375 -1.890625 C 3.578125 -2.273438 3.707031 -2.757812 3.875 -3.34375 L 4 -3.34375 C 3.757812 -2.65625 3.472656 -2.054688 3.140625 -1.546875 C 2.804688 -1.035156 2.46875 -0.632812 2.125 -0.34375 C 1.789062 -0.0507812 1.476562 0.09375 1.1875 0.09375 Z M 1.1875 0.09375 "/></g></g></g><g fill="#000000" fill-opacity="1"><g transform="translate(255.213199, 236.883001)"><g><path d="M 1.34375 0.09375 C 1.09375 0.09375 0.863281 0.0507812 0.65625 -0.03125 C 0.457031 -0.113281 0.289062 -0.21875 0.15625 -0.34375 C 0.03125 -0.476562 -0.03125 -0.625 -0.03125 -0.78125 C -0.03125 -0.882812 -0.0078125 -0.976562 0.03125 -1.0625 C 0.0703125 -1.15625 0.128906 -1.242188 0.203125 -1.328125 C 0.421875 -1.066406 0.648438 -0.859375 0.890625 -0.703125 C 1.140625 -0.554688 1.375 -0.484375 1.59375 -0.484375 C 1.8125 -0.484375 1.984375 -0.535156 2.109375 -0.640625 C 2.234375 -0.753906 2.296875 -0.921875 2.296875 -1.140625 C 2.296875 -1.273438 2.25 -1.414062 2.15625 -1.5625 C 2.070312 -1.707031 1.894531 -1.890625 1.625 -2.109375 C 1.375 -2.347656 1.175781 -2.550781 1.03125 -2.71875 C 0.882812 -2.882812 0.785156 -3.035156 0.734375 -3.171875 C 0.679688 -3.304688 0.65625 -3.445312 0.65625 -3.59375 C 0.65625 -3.875 0.734375 -4.128906 0.890625 -4.359375 C 1.054688 -4.597656 1.273438 -4.785156 1.546875 -4.921875 C 1.828125 -5.066406 2.132812 -5.140625 2.46875 -5.140625 C 2.664062 -5.140625 2.851562 -5.109375 3.03125 -5.046875 C 3.21875 -4.992188 3.367188 -4.914062 3.484375 -4.8125 C 3.609375 -4.71875 3.671875 -4.59375 3.671875 -4.4375 C 3.671875 -4.34375 3.648438 -4.257812 3.609375 -4.1875 C 3.566406 -4.113281 3.515625 -4.039062 3.453125 -3.96875 C 3.253906 -4.164062 3.046875 -4.316406 2.828125 -4.421875 C 2.609375 -4.535156 2.394531 -4.59375 2.1875 -4.59375 C 1.96875 -4.59375 1.796875 -4.53125 1.671875 -4.40625 C 1.546875 -4.28125 1.484375 -4.117188 1.484375 -3.921875 C 1.484375 -3.828125 1.503906 -3.726562 1.546875 -3.625 C 1.585938 -3.53125 1.660156 -3.421875 1.765625 -3.296875 C 1.867188 -3.179688 2.007812 -3.039062 2.1875 -2.875 C 2.4375 -2.632812 2.628906 -2.4375 2.765625 -2.28125 C 2.898438 -2.125 2.992188 -1.984375 3.046875 -1.859375 C 3.097656 -1.734375 3.125 -1.59375 3.125 -1.4375 C 3.125 -1.164062 3.039062 -0.910156 2.875 -0.671875 C 2.707031 -0.441406 2.488281 -0.253906 2.21875 -0.109375 C 1.945312 0.0234375 1.65625 0.09375 1.34375 0.09375 Z M 1.34375 0.09375 "/></g></g></g></svg>